<svg xmlns="http://www.w3.org/2000/svg" viewBox="0 0 480 512"><!--!Font Awesome Free 6.7.2 by @fontawesome - https://fontawesome.com License - https://fontawesome.com/license/free Copyright 2025 Fonticons, Inc.--><path d="M472 334.4L336.1 256l135.9-78.4c7.7-4.4 10.3-14.2 5.9-21.9l-32-55.4c-4.4-7.7-14.2-10.3-21.9-5.9l-135.9 78.4V16c0-8.8-7.2-16-16-16h-64c-8.8 0-16 7.2-16 16v156.9L56 94.4c-7.7-4.4-17.5-1.8-21.9 5.9L2.2 155.7c-4.4 7.7-1.8 17.4 5.9 21.9L143.9 256 8 334.4c-7.7 4.4-10.3 14.2-5.9 21.9l32 55.4c4.4 7.7 14.2 10.3 21.9 5.9l135.9-78.4V496c0 8.8 7.2 16 16 16h64c8.8 0 16-7.2 16-16V339.1l135.9 78.4c7.7 4.4 17.5 1.8 21.9-5.9l32-55.4c4.4-7.7 1.8-17.4-5.9-21.9z"></path></svg>

